<svg width="28" height="29" viewBox="0 0 28 29" fill="none" xmlns="http://www.w3.org/2000/svg">
<path opacity="0.497931" d="M10.757 20.944C10.3853 20.5851 10.3482 20.0022 10.6714 19.5991L11.1298 19.0274L12.1647 17.7364C12.9251 16.7878 11.6536 15.5599 10.7321 16.353L8.92262 17.9104C8.53106 18.2474 7.94724 18.2307 7.57562 17.8718L4.03969 14.4572C3.9956 14.4146 3.96118 14.3631 3.9387 14.3059C3.85093 14.0828 3.96162 13.8281 4.18592 13.7372L20.4696 7.1343C20.5689 7.09405 20.6789 7.09136 20.779 7.12672C21.0051 7.20665 21.121 7.45574 21.0379 7.68307L15.0074 24.1873C14.9861 24.2456 14.9528 24.2988 14.9096 24.3435C14.7411 24.518 14.4649 24.5248 14.2929 24.3586C14.2929 24.3586 12.2054 22.3427 11.1616 21.3348C11.0571 21.2339 10.9092 21.0911 10.757 20.944Z" fill="white"/>
<path d="M11.1298 19.0274V19.0274L17.9837 10.4779C18.0321 10.4175 18.0224 10.3294 17.962 10.2811C17.9094 10.2389 17.8342 10.2402 17.7831 10.2842L8.32828 18.422C8.27346 18.4691 8.19173 18.4668 8.1397 18.4166L4.03969 14.4572V14.4572C3.9956 14.4146 3.96118 14.3631 3.9387 14.3059C3.85093 14.0828 3.96162 13.8281 4.18592 13.7372L20.4696 7.1343C20.5689 7.09405 20.6789 7.09136 20.779 7.12672C21.0051 7.20665 21.121 7.45574 21.0379 7.68307L15.0074 24.1873C14.9861 24.2456 14.9528 24.2988 14.9096 24.3435C14.7411 24.518 14.4649 24.5248 14.2929 24.3586C12.9012 23.0147 11.8575 22.0067 11.1616 21.3348" stroke="white" stroke-linecap="round"/>
</svg>
